<svg width="20" height="20" viewBox="0 0 20 20" fill="none" xmlns="http://www.w3.org/2000/svg">
<path fill-rule="evenodd" clip-rule="evenodd" d="M17.1235 10.936C17.1595 10.636 17.1835 10.324 17.1835 9.99999C17.1835 9.67599 17.1595 9.36399 17.1115 9.06399L19.1395 7.47999C19.3195 7.33599 19.3675 7.07199 19.2595 6.86799L17.3395 3.54399C17.2195 3.32799 16.9675 3.25599 16.7515 3.32799L14.3635 4.28799C13.8595 3.90399 13.3315 3.59199 12.7435 3.35199L12.3835 0.807994C12.3475 0.567994 12.1435 0.399994 11.9035 0.399994H8.06351C7.82351 0.399994 7.63151 0.567994 7.59551 0.807994L7.23551 3.35199C6.64751 3.59199 6.10751 3.91599 5.61551 4.28799L3.2275 3.32799C3.0115 3.24399 2.75951 3.32799 2.63951 3.54399L0.719505 6.86799C0.599505 7.08399 0.647505 7.33599 0.839505 7.47999L2.86751 9.06399C2.8195 9.36399 2.7835 9.68799 2.7835 9.99999C2.7835 10.312 2.8075 10.636 2.8555 10.936L0.827505 12.52C0.647505 12.664 0.599505 12.928 0.707505 13.132L2.62751 16.456C2.7475 16.672 2.99951 16.744 3.21551 16.672L5.60351 15.712C6.10751 16.096 6.63551 16.408 7.22351 16.648L7.58351 19.192C7.63151 19.432 7.82351 19.6 8.06351 19.6H11.9035C12.1435 19.6 12.3475 19.432 12.3715 19.192L12.7315 16.648C13.3195 16.408 13.8595 16.084 14.3515 15.712L16.7395 16.672C16.9555 16.756 17.2075 16.672 17.3275 16.456L19.2475 13.132C19.3675 12.916 19.3195 12.664 19.1275 12.52L17.1235 10.936ZM9.98351 13.6C8.0035 13.6 6.3835 11.98 6.3835 9.99999C6.3835 8.01999 8.0035 6.39999 9.98351 6.39999C11.9635 6.39999 13.5835 8.01999 13.5835 9.99999C13.5835 11.98 11.9635 13.6 9.98351 13.6Z" fill="black" fill-opacity="0.87"/>
</svg>
